<svg xmlns="http://www.w3.org/2000/svg" width="30" height="30" viewBox="0 0 362 306">
  <metadata><?xpacket begin="﻿" id="W5M0MpCehiHzreSzNTczkc9d"?>
<x:xmpmeta xmlns:x="adobe:ns:meta/" x:xmptk="Adobe XMP Core 5.6-c138 79.159824, 2016/09/14-01:09:01        ">
   <rdf:RDF xmlns:rdf="http://www.w3.org/1999/02/22-rdf-syntax-ns#">
      <rdf:Description rdf:about=""/>
   </rdf:RDF>
</x:xmpmeta>
                                                                                                    
                                                                                                    
                                                                                                    
                                                                                                    
                                                                                                    
                                                                                                    
                                                                                                    
                                                                                                    
                                                                                                    
                                                                                                    
                                                                                                    
                                                                                                    
                                                                                                    
                                                                                                    
                                                                                                    
                                                                                                    
                                                                                                    
                                                                                                    
                                                                                                    
                                                                                                    
                           
<?xpacket end="w"?></metadata>
<defs>
    <style>
      .cls-1 {
        fill-rule: evenodd;
      }
    </style>
  </defs>
  <path id="Forma_1" data-name="Forma 1" class="cls-1" d="M79.769,128.1L3.881,28.779a17.706,17.706,0,0,1-1.872-18.7A18.033,18.033,0,0,1,18,0a17.935,17.935,0,0,1,7.771,1.787L138.7,55.656a1.547,1.547,0,0,0,.841-0.43l0.437-.437,61.838-48.21A26.768,26.768,0,0,1,218.559.713a27.15,27.15,0,0,1,27,24.062l5.3,46.388,102.419,93.6,0.219,0.207a28.512,28.512,0,0,1,1.955,38.673l-68.8,81.816a28.4,28.4,0,0,1-41.059,2.53l-33.4-26.44-0.74-.647a6.764,6.764,0,0,0-7.347-1.3l-98.8,43.691A31.339,31.339,0,0,1,92.549,306a30.6,30.6,0,0,1-9.463-1.491c-13.027-4.225-25.454-14.823-36.937-31.5a55.62,55.62,0,0,1-6.4-50.453l0.109-.3,40.5-92.5a1.533,1.533,0,0,0-.345-1.382ZM58.457,229.677a35.561,35.561,0,0,0,4.173,31.979c8.8,12.784,18.01,21.018,26.63,23.814a11.311,11.311,0,0,0,7.947-.482l98.8-43.691a26.69,26.69,0,0,1,28.936,4.831l33.407,26.442,0.739,0.647a8.389,8.389,0,0,0,12.247-.637l68.8-81.816a8.428,8.428,0,0,0-.49-11.341L237.164,85.761l-0.219-.207a21.674,21.674,0,0,1-5.212-8.016l-0.415-1.128-5.637-49.363a7.07,7.07,0,0,0-7.123-6.318,6.912,6.912,0,0,0-4.39,1.594l-51.54,40.183L98.3,138.689ZM93.6,113.234L127.859,72.66,25.163,23.671Zm51.13,18.743a20.586,20.586,0,1,0,20.58,20.586A20.583,20.583,0,0,0,144.727,131.977Z"/>
</svg>
