<svg height="58" viewBox="0 0 256 58" width="256" xmlns="http://www.w3.org/2000/svg"><g fill="none" fill-rule="evenodd"><path d="m88.646 25.308c-2.2880114 0-4.066327-.6233271-5.335-1.87s-1.903-3.0139886-1.903-5.302v-8.536h4.356v8.404c0 2.4640123.9753236 3.696 2.926 3.696 1.9360097 0 2.904-1.2319877 2.904-3.696v-8.404h4.29v8.536c0 2.2880114-.634327 4.0553271-1.903 5.302s-3.0469886 1.87-5.335 1.87zm24.838-15.708v15.4h-3.586l-6.798-8.206v8.206h-4.268v-15.4h3.586l6.798 8.206v-8.206zm8.492 15.708c-1.246673 0-2.456661-.1539985-3.63-.462s-2.126663-.7186641-2.86-1.232l1.43-3.212c.689337.4546689 1.488662.8213319 2.398 1.1s1.803996.418 2.684.418c1.672008 0 2.508-.4179958 2.508-1.254 0-.4400022-.238331-.7663323-.715-.979s-1.242995-.4363322-2.299-.671c-1.158672-.2493346-2.126663-.5169986-2.904-.803s-1.444664-.7443302-2.002-1.375-.836-1.481328-.836-2.552c0-.9386714.256664-1.7856629.77-2.541s1.279662-1.3529978 2.299-1.793 2.269659-.66 3.751-.66c1.012005 0 2.009328.11366553 2.992.341s1.847996.5609978 2.596 1.001l-1.342 3.234c-1.466674-.792004-2.889326-1.188-4.268-1.188-.865338 0-1.495998.128332-1.892.385-.396002.2566679-.594.5903313-.594 1.001s.234664.7186656.704.924 1.224661.4179989 2.266.638c1.173339.2493346 2.144996.5169986 2.915.803s1.437331.7406636 2.002 1.364c.564669.6233365.847 1.470328.847 2.541 0 .9240046-.256664 1.7599963-.77 2.508s-1.283328 1.3456644-2.31 1.793-2.273326.671-3.74.671zm12.1-12.254h-4.73v-3.454h13.794v3.454h-4.708v11.946h-4.356zm18.458 12.254c-1.628008 0-3.090994-.3446632-4.389-1.034s-2.31733-1.6426606-3.058-2.86-1.111-2.588659-1.111-4.114.37033-2.8966606 1.111-4.114 1.759994-2.1706632 3.058-2.86c1.298006-.68933678 2.760992-1.034 4.389-1.034s3.090994.34466322 4.389 1.034c1.298006.6893368 2.31733 1.6426606 3.058 2.86s1.111 2.588659 1.111 4.114-.37033 2.8966606-1.111 4.114-1.759994 2.1706632-3.058 2.86-2.760992 1.034-4.389 1.034zm0-3.608c.777337 0 1.48133-.1833315 2.112-.55s1.129331-.8836633 1.496-1.551c.366668-.6673367.55-1.4336623.55-2.299s-.183332-1.6316633-.55-2.299c-.366669-.6673367-.86533-1.1843315-1.496-1.551s-1.334663-.55-2.112-.55-1.48133.1833315-2.112.55-1.129332.8836633-1.496 1.551-.55 1.4336623-.55 2.299.183332 1.6316633.55 2.299.86533 1.1843315 1.496 1.551 1.334663.55 2.112.55zm17.886-12.1c1.39334 0 2.603328.23099769 3.63.693 1.026672.4620023 1.818664 1.1219957 2.376 1.98s.836 1.8663275.836 3.025-.278664 2.1633291-.836 3.014-1.349328 1.5069977-2.376 1.969-2.23666.693-3.63.693h-2.684v4.026h-4.356v-15.4zm-.264 7.942c.894671 0 1.569331-.1943314 2.024-.583s.682-.9423297.682-1.661-.227331-1.275998-.682-1.672-1.129329-.594-2.024-.594h-2.42v4.51zm16.478-7.942c1.39334 0 2.603328.23099769 3.63.693 1.026672.4620023 1.818664 1.1219957 2.376 1.98s.836 1.8663275.836 3.025-.278664 2.1633291-.836 3.014-1.349328 1.5069977-2.376 1.969-2.23666.693-3.63.693h-2.684v4.026h-4.356v-15.4zm-.264 7.942c.894671 0 1.569331-.1943314 2.024-.583s.682-.9423297.682-1.661-.227331-1.275998-.682-1.672-1.129329-.594-2.024-.594h-2.42v4.51zm19.756 4.466h-6.512l-1.21 2.992h-4.444l6.798-15.4h4.29l6.82 15.4h-4.532zm-1.276-3.212-1.98-4.928-1.98 4.928zm20.086-1.826c.880004.3080015 1.569331.7883301 2.068 1.441s.748 1.4409954.748 2.365c0 1.3493401-.542661 2.390663-1.628 3.124s-2.654656 1.1-4.708 1.1h-8.316v-15.4h7.876c1.965343 0 3.461328.36299637 4.488 1.089 1.026672.7260036 1.54 1.7049938 1.54 2.937 0 .733337-.179665 1.3896638-.539 1.969s-.868997 1.037665-1.529 1.375zm-7.524-4.224v2.97h2.992c1.466674 0 2.2-.4986617 2.2-1.496 0-.9826716-.733326-1.474-2.2-1.474zm3.652 9.108c1.525341 0 2.288-.5206615 2.288-1.562s-.762659-1.562-2.288-1.562h-3.652v3.124zm8.954-12.254h4.356v11.946h7.348v3.454h-11.704zm25.784 12.034v3.366h-12.364v-15.4h12.078v3.366h-7.766v2.596h6.842v3.256h-6.842v2.816zm-174.262 11.966h7.282c1.6866751 0 3.1826601.3153302 4.488.946s2.3173297 1.5253275 3.036 2.684 1.078 2.5153256 1.078 4.07-.3593297 2.9113275-1.078 4.07-1.7306601 2.0533302-3.036 2.684-2.8013249.946-4.488.946h-7.282zm7.106 11.924c1.3200066 0 2.3796627-.3739963 3.179-1.122s1.199-1.7819934 1.199-3.102-.3996627-2.3539963-1.199-3.102-1.8589934-1.122-3.179-1.122h-2.75v8.448zm18.832 3.784c-1.628008 0-3.090994-.3446632-4.389-1.034s-2.31733-1.6426606-3.058-2.86c-.7406704-1.2173394-1.111-2.588659-1.111-4.114s.3703296-2.8966606 1.111-4.114c.74067-1.2173394 1.759994-2.1706632 3.058-2.86s2.760992-1.034 4.389-1.034 3.090994.3446632 4.389 1.034 2.31733 1.6426606 3.058 2.86 1.111 2.588659 1.111 4.114-.37033 2.8966606-1.111 4.114-1.759994 2.1706632-3.058 2.86-2.760992 1.034-4.389 1.034zm0-3.608c.777337 0 1.48133-.1833315 2.112-.55s1.129332-.8836633 1.496-1.551c.366669-.6673367.55-1.4336623.55-2.299s-.183331-1.6316633-.55-2.299c-.366668-.6673367-.86533-1.1843315-1.496-1.551s-1.334663-.55-2.112-.55-1.48133.1833315-2.112.55-1.129331.8836633-1.496 1.551c-.366668.6673367-.55 1.4336623-.55 2.299s.183332 1.6316633.55 2.299c.366669.6673367.86533 1.1843315 1.496 1.551s1.334663.55 2.112.55zm24.75 3.3-.044-8.162-3.96 6.644h-1.936l-3.938-6.424v7.942h-4.026v-15.4h3.586l5.412 8.888 5.28-8.888h3.586l.044 15.4zm17.402-2.992h-6.512l-1.21 2.992h-4.444l6.798-15.4h4.29l6.82 15.4h-4.532zm-1.276-3.212-1.98-4.928-1.98 4.928zm8.25-9.196h4.356v15.4h-4.356zm22.11 0v15.4h-3.586l-6.798-8.206v8.206h-4.268v-15.4h3.586l6.798 8.206v-8.206zm8.492 15.708c-1.246673 0-2.456661-.1539985-3.63-.462s-2.126663-.7186641-2.86-1.232l1.43-3.212c.689337.4546689 1.488662.8213319 2.398 1.1s1.803996.418 2.684.418c1.672008 0 2.508-.4179958 2.508-1.254 0-.4400022-.238331-.7663323-.715-.979s-1.242995-.4363322-2.299-.671c-1.158672-.2493346-2.126663-.5169986-2.904-.803s-1.444664-.7443302-2.002-1.375-.836-1.481328-.836-2.552c0-.9386714.256664-1.7856629.77-2.541s1.279662-1.3529978 2.299-1.793 2.269659-.66 3.751-.66c1.012005 0 2.009328.1136655 2.992.341s1.847996.5609978 2.596 1.001l-1.342 3.234c-1.466674-.792004-2.889326-1.188-4.268-1.188-.865338 0-1.495998.1283321-1.892.385-.396002.256668-.594.5903313-.594 1.001s.234664.7186656.704.924 1.224661.4179989 2.266.638c1.173339.2493346 2.144996.5169986 2.915.803s1.437331.7406636 2.002 1.364.847 1.470328.847 2.541c0 .9240046-.256664 1.7599963-.77 2.508s-1.283328 1.3456644-2.31 1.793-2.273326.671-3.74.671z" fill="#010617" fill-rule="nonzero"/><path d="m64 1v22l-64 26z" fill="#2fe9ff"/><path d="m52 0v38c0 11.045695-8.954305 20-20 20s-20-8.954305-20-20v-16l12-6.6v22.6c0 3.8659932 3.1340068 7 7 7s7-3.1340068 7-7v-30.3z" fill="#4c47f7"/></g></svg>