<?xml version="1.0" encoding="UTF-8"?>
<svg width="28px" height="28px" viewBox="0 0 28 28" version="1.1" xmlns="http://www.w3.org/2000/svg" xmlns:xlink="http://www.w3.org/1999/xlink">
    <!-- Generator: Sketch 59.1 (86144) - https://sketch.com -->
    <title>social-medium</title>
    <desc>Created with Sketch.</desc>
    <g id="social-medium" stroke="none" stroke-width="1" fill="none" fill-rule="evenodd">
        <g id="medium">
            <rect id="Rectangle" x="0" y="0" width="28" height="28"></rect>
            <path d="M1,27 L1,1 L27,1 L27,27 L1,27 Z M7.35885714,17.6199429 C7.35885714,18.0322286 7.3388,18.1302857 7.12262857,18.3850857 L5.29742857,20.6025143 L5.29742857,20.8966857 L10.4781143,20.8966857 L10.4781143,20.6025143 L8.65365714,18.3850857 C8.43748571,18.1302857 8.39811429,18.0121714 8.39811429,17.6199429 L8.39811429,10.9691429 L12.9496,20.8966857 L13.48,20.8966857 L17.3844571,10.9691429 L17.3844571,18.8761143 C17.3844571,19.0915429 17.3844571,19.1301714 17.2470286,19.2683429 L15.8742286,20.6025143 L15.8742286,20.8966857 L22.7010857,20.8966857 L22.7010857,20.6025143 L21.3476,19.2683429 C21.2109143,19.1301714 21.1916,19.0915429 21.1916,18.8761143 L21.1916,9.12462857 C21.1916,8.90845714 21.2109143,8.86908571 21.3476,8.7324 L22.7018286,7.39748571 L22.7018286,7.10331429 L17.8948,7.10331429 L14.4613143,15.6773714 L10.5962286,7.10331429 L5.55222857,7.10331429 L5.55222857,7.39748571 L7.14194286,9.35862857 C7.31948571,9.57554286 7.35811429,9.63348571 7.35811429,9.92914286 L7.35811429,17.6199429 L7.35885714,17.6199429 Z" id="Shape" fill="#96A0D1"></path>
        </g>
    </g>
</svg>