<?xml version="1.0" encoding="UTF-8"?>
<svg width="28px" height="28px" viewBox="0 0 28 28" version="1.1" xmlns="http://www.w3.org/2000/svg" xmlns:xlink="http://www.w3.org/1999/xlink">
    <!-- Generator: Sketch 59.1 (86144) - https://sketch.com -->
    <title>social-twitter</title>
    <desc>Created with Sketch.</desc>
    <g id="social-twitter" stroke="none" stroke-width="1" fill="none" fill-rule="evenodd">
        <g id="Twitter">
            <rect id="Rectangle-Copy-4" x="0" y="0" width="28" height="28"></rect>
            <path d="M9.54752,23.5014103 C18.60416,23.5014103 23.55776,15.9980503 23.55776,9.49117027 C23.55776,9.27805027 23.55776,9.06589027 23.54336,8.85469027 C24.5070381,8.15764469 25.3389013,7.29457449 26,6.30589027 C25.1013239,6.70409997 24.1479961,6.96524577 23.17184,7.08061027 C24.1997542,6.46523304 24.9690786,5.49735138 25.33664,4.35709027 C24.3700712,4.93064737 23.3126203,5.33486181 22.20992,5.55229027 C20.6835995,3.92930878 18.2582906,3.53207835 16.2939673,4.583343 C14.329644,5.63460765 13.314824,7.87292297 13.81856,10.0431703 C9.85941991,9.84468983 6.17069675,7.97468061 3.6704,4.89853027 C2.36347785,7.14842921 3.03102837,10.0267154 5.19488,11.4716503 C4.41127155,11.4484255 3.6447482,11.2370389 2.96,10.8553303 C2.96,10.8754903 2.96,10.8966103 2.96,10.9177303 C2.96064141,13.2616595 4.61288143,15.280484 6.9104,15.7446103 C6.18547481,15.9423127 5.42487736,15.9712128 4.68704,15.8290903 C5.33211001,17.8349362 7.18071158,19.2090428 9.28736,19.2486103 C7.54374564,20.6189449 5.38981713,21.3628449 3.17216,21.3606103 C2.78038743,21.3598582 2.3889959,21.3361375 2,21.2895703 C4.25181051,22.7346358 6.87191687,23.5011385 9.54752,23.4975703" id="Path" fill="#96A0D1"></path>
        </g>
    </g>
</svg>