<?xml version="1.0" encoding="UTF-8"?>
<svg width="28px" height="28px" viewBox="0 0 28 28" version="1.1" xmlns="http://www.w3.org/2000/svg" xmlns:xlink="http://www.w3.org/1999/xlink">
    <!-- Generator: Sketch 59.1 (86144) - https://sketch.com -->
    <title>social-facebook</title>
    <desc>Created with Sketch.</desc>
    <g id="social-facebook" stroke="none" stroke-width="1" fill="none" fill-rule="evenodd">
        <g id="facebook-copy" fill="#96A0D1">
            <path d="M14,0 C21.7319865,0 28,6.2680135 28,14 C28,20.9869991 22.88166,26.7785459 16.1898922,27.8297283 L16.1895735,18.0473934 L19.4313365,18.0473934 L20.0010237,14.0663507 L16.1895735,14.0663507 L16.1895735,10.8815166 C16.1594502,9.59341758 17.450237,9.09004739 18.2430616,9.11088152 L20.1706161,9.11088152 L20.1706161,5.80069794 C19.2421597,5.64968424 18.5371834,5.560371 17.2163896,5.560371 C12.8571997,5.560371 11.8866262,8.67237485 11.8866262,10.596872 L11.8866262,14.0663507 L8.22748815,14.0663507 L8.22748815,18.0473934 L11.8104265,18.0473934 L11.8101078,27.8297283 C5.11833998,26.7785459 0,20.9869991 0,14 C0,6.2680135 6.2680135,0 14,0 Z" id="path-1_1_"></path>
        </g>
    </g>
</svg>