<?xml version="1.0" encoding="UTF-8"?>
<svg width="184px" height="42px" viewBox="0 0 184 42" version="1.1" xmlns="http://www.w3.org/2000/svg" xmlns:xlink="http://www.w3.org/1999/xlink">
    <!-- Generator: Sketch 59.1 (86144) - https://sketch.com -->
    <title>UnstoppableDomains-logo</title>
    <desc>Created with Sketch.</desc>
    <g id="IPFS" stroke="none" stroke-width="1" fill="none" fill-rule="evenodd">
        <g id="IPFS---000-00---Unstoppable" transform="translate(-80.000000, -15.000000)">
            <g id="HEADER">
                <g id="header---content" transform="translate(40.000000, 13.000000)">
                    <g id="UnstoppableDomains-logo" transform="translate(40.000000, 0.000000)">
                        <path d="M63.7143125,20.3264828 C62.0698043,20.3264828 60.79164,19.875108 59.8797812,18.9723448 C58.9679225,18.0695817 58.512,16.7898014 58.512,15.1329655 L58.512,8.95172414 L61.642875,8.95172414 L61.642875,15.0373793 C61.642875,16.8216641 62.3438888,17.7137931 63.7459375,17.7137931 C65.1374445,17.7137931 65.8331875,16.8216641 65.8331875,15.0373793 L65.8331875,8.95172414 L68.916625,8.95172414 L68.916625,15.1329655 C68.916625,16.7898014 68.4607025,18.0695817 67.5488437,18.9723448 C66.636985,19.875108 65.3588207,20.3264828 63.7143125,20.3264828 Z M81.566625,8.95172414 L81.566625,20.1034483 L78.9891875,20.1034483 L74.103125,14.1611724 L74.103125,20.1034483 L71.0355,20.1034483 L71.0355,8.95172414 L73.6129375,8.95172414 L78.499,14.894 L78.499,8.95172414 L81.566625,8.95172414 Z M87.67025,20.3264828 C86.7742039,20.3264828 85.904525,20.2149666 85.0611875,19.991931 C84.2178499,19.7688954 83.5326485,19.4715191 83.0055625,19.0997931 L84.033375,16.7738621 C84.5288358,17.1031051 85.1033509,17.3686197 85.7569375,17.5704138 C86.4105241,17.7722079 87.0535593,17.8731034 87.6860625,17.8731034 C88.8878185,17.8731034 89.4886875,17.5704168 89.4886875,16.9650345 C89.4886875,16.6464122 89.3173871,16.4101042 88.9747812,16.2561034 C88.6321754,16.1021027 88.0813788,15.9401388 87.322375,15.7702069 C86.4895792,15.5896543 85.7938361,15.3958286 85.235125,15.1887241 C84.6764139,14.9816197 84.1967728,14.6497264 83.7961875,14.1930345 C83.3956022,13.7363425 83.1953125,13.1203487 83.1953125,12.3450345 C83.1953125,11.6653069 83.3797898,11.0519683 83.74875,10.505 C84.1177102,9.95803175 84.6685068,9.52524297 85.4011562,9.20662069 C86.1338057,8.88799841 87.0324738,8.72868966 88.0971875,8.72868966 C88.8245661,8.72868966 89.5413923,8.81099918 90.2476875,8.97562069 C90.9539827,9.1402422 91.5759348,9.38186048 92.1135625,9.70048276 L91.149,12.0423448 C90.0948281,11.4688247 89.0722966,11.182069 88.081375,11.182069 C87.4594136,11.182069 87.0061264,11.2749991 86.7215,11.4608621 C86.4368736,11.6467251 86.2945625,11.8883433 86.2945625,12.1857241 C86.2945625,12.4831049 86.4632275,12.7061372 86.8005625,12.8548276 C87.1378975,13.003518 87.6807879,13.1575164 88.42925,13.3168276 C89.2725875,13.4973802 89.970966,13.6912059 90.5244062,13.8983103 C91.0778465,14.1054148 91.5574876,14.4346529 91.9633437,14.8860345 C92.3691999,15.3374161 92.572125,15.9507547 92.572125,16.726069 C92.572125,17.3951758 92.3876477,18.000549 92.0186875,18.5422069 C91.6497273,19.0838648 91.0962954,19.5166536 90.358375,19.8405862 C89.6204546,20.1645189 88.7244219,20.3264828 87.67025,20.3264828 Z M96.367125,11.4528966 L92.9674375,11.4528966 L92.9674375,8.95172414 L102.881875,8.95172414 L102.881875,11.4528966 L99.498,11.4528966 L99.498,20.1034483 L96.367125,20.1034483 L96.367125,11.4528966 Z M109.633812,20.3264828 C108.463682,20.3264828 107.412161,20.076899 106.479219,19.5777241 C105.546277,19.0785492 104.813638,18.3882113 104.281281,17.5066897 C103.748924,16.625168 103.48275,15.6321435 103.48275,14.5275862 C103.48275,13.423029 103.748924,12.4300044 104.281281,11.5484828 C104.813638,10.6669611 105.546277,9.97662319 106.479219,9.47744828 C107.412161,8.97827337 108.463682,8.72868966 109.633812,8.72868966 C110.803943,8.72868966 111.855464,8.97827337 112.788406,9.47744828 C113.721348,9.97662319 114.453987,10.6669611 114.986344,11.5484828 C115.518701,12.4300044 115.784875,13.423029 115.784875,14.5275862 C115.784875,15.6321435 115.518701,16.625168 114.986344,17.5066897 C114.453987,18.3882113 113.721348,19.0785492 112.788406,19.5777241 C111.855464,20.076899 110.803943,20.3264828 109.633812,20.3264828 Z M109.633812,17.7137931 C110.192524,17.7137931 110.698519,17.5810358 111.151812,17.3155172 C111.605106,17.0499987 111.96352,16.6756231 112.227062,16.1923793 C112.490605,15.7091355 112.622375,15.15421 112.622375,14.5275862 C112.622375,13.9009624 112.490605,13.3460369 112.227062,12.8627931 C111.96352,12.3795493 111.605106,12.0051737 111.151812,11.7396552 C110.698519,11.4741366 110.192524,11.3413793 109.633812,11.3413793 C109.075101,11.3413793 108.569106,11.4741366 108.115812,11.7396552 C107.662519,12.0051737 107.304105,12.3795493 107.040562,12.8627931 C106.77702,13.3460369 106.64525,13.9009624 106.64525,14.5275862 C106.64525,15.15421 106.77702,15.7091355 107.040562,16.1923793 C107.304105,16.6756231 107.662519,17.0499987 108.115812,17.3155172 C108.569106,17.5810358 109.075101,17.7137931 109.633812,17.7137931 Z M122.489375,8.95172414 C123.490838,8.95172414 124.360517,9.11899833 125.098437,9.45355172 C125.836358,9.78810512 126.405602,10.2660314 126.806187,10.8873448 C127.206773,11.5086583 127.407062,12.2388234 127.407062,13.0778621 C127.407062,13.9169007 127.206773,14.6444107 126.806187,15.2604138 C126.405602,15.8764169 125.836358,16.351688 125.098437,16.6862414 C124.360517,17.0207948 123.490838,17.188069 122.489375,17.188069 L120.56025,17.188069 L120.56025,20.1034483 L117.429375,20.1034483 L117.429375,8.95172414 L122.489375,8.95172414 Z M122.299625,14.7028276 C122.94267,14.7028276 123.427582,14.5621049 123.754375,14.2806552 C124.081168,13.9992055 124.244562,13.5982785 124.244562,13.0778621 C124.244562,12.5574457 124.081168,12.1538635 123.754375,11.8671034 C123.427582,11.5803434 122.94267,11.4369655 122.299625,11.4369655 L120.56025,11.4369655 L120.56025,14.7028276 L122.299625,14.7028276 Z M134.143187,8.95172414 C135.144651,8.95172414 136.01433,9.11899833 136.75225,9.45355172 C137.49017,9.78810512 138.059415,10.2660314 138.46,10.8873448 C138.860585,11.5086583 139.060875,12.2388234 139.060875,13.0778621 C139.060875,13.9169007 138.860585,14.6444107 138.46,15.2604138 C138.059415,15.8764169 137.49017,16.351688 136.75225,16.6862414 C136.01433,17.0207948 135.144651,17.188069 134.143187,17.188069 L132.214062,17.188069 L132.214062,20.1034483 L129.083187,20.1034483 L129.083187,8.95172414 L134.143187,8.95172414 Z M133.953437,14.7028276 C134.596482,14.7028276 135.081394,14.5621049 135.408187,14.2806552 C135.734981,13.9992055 135.898375,13.5982785 135.898375,13.0778621 C135.898375,12.5574457 135.734981,12.1538635 135.408187,11.8671034 C135.081394,11.5803434 134.596482,11.4369655 133.953437,11.4369655 L132.214062,11.4369655 L132.214062,14.7028276 L133.953437,14.7028276 Z M148.153062,17.9368276 L143.472562,17.9368276 L142.602875,20.1034483 L139.40875,20.1034483 L144.294812,8.95172414 L147.37825,8.95172414 L152.280125,20.1034483 L149.02275,20.1034483 L148.153062,17.9368276 Z M147.235937,15.6108966 L145.812812,12.0423448 L144.389687,15.6108966 L147.235937,15.6108966 Z M161.67275,14.2886207 C162.305253,14.5116563 162.800707,14.8594804 163.159125,15.3321034 C163.517543,15.8047265 163.69675,16.3755829 163.69675,17.0446897 C163.69675,18.021798 163.306712,18.7758594 162.526625,19.3068966 C161.746538,19.8379337 160.618591,20.1034483 159.14275,20.1034483 L153.165625,20.1034483 L153.165625,8.95172414 L158.8265,8.95172414 C160.23909,8.95172414 161.31433,9.21458358 162.05225,9.74031034 C162.79017,10.2660371 163.159125,10.9749611 163.159125,11.8671034 C163.159125,12.3981406 163.029991,12.8734117 162.771719,13.292931 C162.513447,13.7124504 162.147127,14.0443436 161.67275,14.2886207 Z M156.264875,11.2298621 L156.264875,13.3805517 L158.415375,13.3805517 C159.469547,13.3805517 159.996625,13.0194519 159.996625,12.2972414 C159.996625,11.5856516 159.469547,11.2298621 158.415375,11.2298621 L156.264875,11.2298621 Z M158.88975,17.8253103 C159.986089,17.8253103 160.53425,17.4482796 160.53425,16.6942069 C160.53425,15.9401342 159.986089,15.5631034 158.88975,15.5631034 L156.264875,15.5631034 L156.264875,17.8253103 L158.88975,17.8253103 Z M165.325437,8.95172414 L168.456312,8.95172414 L168.456312,17.6022759 L173.737687,17.6022759 L173.737687,20.1034483 L165.325437,20.1034483 L165.325437,8.95172414 Z M183.857687,17.666 L183.857687,20.1034483 L174.971062,20.1034483 L174.971062,8.95172414 L183.652125,8.95172414 L183.652125,11.3891724 L178.070312,11.3891724 L178.070312,13.2690345 L182.988,13.2690345 L182.988,15.6268276 L178.070312,15.6268276 L178.070312,17.666 L183.857687,17.666 Z M58.606875,26.3310345 L63.8408125,26.3310345 C65.0531102,26.3310345 66.1283495,26.559377 67.0665625,27.016069 C68.0047755,27.4727609 68.7321433,28.1206165 69.2486875,28.9596552 C69.7652317,29.7986939 70.0235,30.7810978 70.0235,31.9068966 C70.0235,33.0326953 69.7652317,34.0150993 69.2486875,34.8541379 C68.7321433,35.6931766 68.0047755,36.3410322 67.0665625,36.7977241 C66.1283495,37.2544161 65.0531102,37.4827586 63.8408125,37.4827586 L58.606875,37.4827586 L58.606875,26.3310345 Z M63.7143125,34.9656552 C64.6630672,34.9656552 65.424695,34.6948303 65.9992187,34.1531724 C66.5737425,33.6115145 66.861,32.8627634 66.861,31.9068966 C66.861,30.9510297 66.5737425,30.2022786 65.9992187,29.6606207 C65.424695,29.1189628 64.6630672,28.8481379 63.7143125,28.8481379 L61.73775,28.8481379 L61.73775,34.9656552 L63.7143125,34.9656552 Z M77.2498125,37.7057931 C76.0796816,37.7057931 75.0281609,37.4562094 74.0952187,36.9570345 C73.1622766,36.4578596 72.4296381,35.7675216 71.8972812,34.886 C71.3649244,34.0044784 71.09875,33.0114538 71.09875,31.9068966 C71.09875,30.8023393 71.3649244,29.8093148 71.8972812,28.9277931 C72.4296381,28.0462715 73.1622766,27.3559335 74.0952187,26.8567586 C75.0281609,26.3575837 76.0796816,26.108 77.2498125,26.108 C78.4199434,26.108 79.4714641,26.3575837 80.4044062,26.8567586 C81.3373484,27.3559335 82.0699869,28.0462715 82.6023437,28.9277931 C83.1347006,29.8093148 83.400875,30.8023393 83.400875,31.9068966 C83.400875,33.0114538 83.1347006,34.0044784 82.6023437,34.886 C82.0699869,35.7675216 81.3373484,36.4578596 80.4044062,36.9570345 C79.4714641,37.4562094 78.4199434,37.7057931 77.2498125,37.7057931 Z M77.2498125,35.0931034 C77.8085236,35.0931034 78.3145186,34.9603462 78.7678125,34.6948276 C79.2211064,34.429309 79.5795195,34.0549335 79.8430625,33.5716897 C80.1066055,33.0884459 80.238375,32.5335204 80.238375,31.9068966 C80.238375,31.2802727 80.1066055,30.7253472 79.8430625,30.2421034 C79.5795195,29.7588597 79.2211064,29.3844841 78.7678125,29.1189655 C78.3145186,28.8534469 77.8085236,28.7206897 77.2498125,28.7206897 C76.6911014,28.7206897 76.1851064,28.8534469 75.7318125,29.1189655 C75.2785186,29.3844841 74.9201055,29.7588597 74.6565625,30.2421034 C74.3930195,30.7253472 74.26125,31.2802727 74.26125,31.9068966 C74.26125,32.5335204 74.3930195,33.0884459 74.6565625,33.5716897 C74.9201055,34.0549335 75.2785186,34.429309 75.7318125,34.6948276 C76.1851064,34.9603462 76.6911014,35.0931034 77.2498125,35.0931034 Z M95.038875,37.4827586 L95.00725,31.5723448 L92.161,36.3835172 L90.7695,36.3835172 L87.9390625,31.7316552 L87.9390625,37.4827586 L85.045375,37.4827586 L85.045375,26.3310345 L87.6228125,26.3310345 L91.5126875,32.7671724 L95.3076875,26.3310345 L97.885125,26.3310345 L97.91675,37.4827586 L95.038875,37.4827586 Z M107.546562,35.3161379 L102.866062,35.3161379 L101.996375,37.4827586 L98.80225,37.4827586 L103.688312,26.3310345 L106.77175,26.3310345 L111.673625,37.4827586 L108.41625,37.4827586 L107.546562,35.3161379 Z M106.629437,32.9902069 L105.206312,29.4216552 L103.783187,32.9902069 L106.629437,32.9902069 Z M112.559125,26.3310345 L115.69,26.3310345 L115.69,37.4827586 L112.559125,37.4827586 L112.559125,26.3310345 Z M128.450687,26.3310345 L128.450687,37.4827586 L125.87325,37.4827586 L120.987187,31.5404828 L120.987187,37.4827586 L117.919562,37.4827586 L117.919562,26.3310345 L120.497,26.3310345 L125.383062,32.2733103 L125.383062,26.3310345 L128.450687,26.3310345 Z M134.554312,37.7057931 C133.658266,37.7057931 132.788588,37.594277 131.94525,37.3712414 C131.101912,37.1482058 130.416711,36.8508294 129.889625,36.4791034 L130.917437,34.1531724 C131.412898,34.4824154 131.987413,34.74793 132.641,34.9497241 C133.294587,35.1515183 133.937622,35.2524138 134.570125,35.2524138 C135.771881,35.2524138 136.37275,34.9497272 136.37275,34.3443448 C136.37275,34.0257225 136.20145,33.7894146 135.858844,33.6354138 C135.516238,33.481413 134.965441,33.3194491 134.206437,33.1495172 C133.373642,32.9689646 132.677899,32.775139 132.119187,32.5680345 C131.560476,32.36093 131.080835,32.0290368 130.68025,31.5723448 C130.279665,31.1156529 130.079375,30.499659 130.079375,29.7243448 C130.079375,29.0446173 130.263852,28.4312786 130.632812,27.8843103 C131.001773,27.3373421 131.552569,26.9045533 132.285219,26.585931 C133.017868,26.2673088 133.916536,26.108 134.98125,26.108 C135.708629,26.108 136.425455,26.1903095 137.13175,26.354931 C137.838045,26.5195525 138.459997,26.7611708 138.997625,27.0797931 L138.033062,29.4216552 C136.978891,28.8481351 135.956359,28.5613793 134.965437,28.5613793 C134.343476,28.5613793 133.890189,28.6543094 133.605562,28.8401724 C133.320936,29.0260354 133.178625,29.2676537 133.178625,29.5650345 C133.178625,29.8624153 133.34729,30.0854475 133.684625,30.2341379 C134.02196,30.3828283 134.56485,30.5368268 135.313312,30.6961379 C136.15665,30.8766906 136.855028,31.0705162 137.408469,31.2776207 C137.961909,31.4847252 138.44155,31.8139633 138.847406,32.2653448 C139.253262,32.7167264 139.456187,33.3300651 139.456187,34.1053793 C139.456187,34.7744861 139.27171,35.3798594 138.90275,35.9215172 C138.53379,36.4631751 137.980358,36.8959639 137.242437,37.2198966 C136.504517,37.5438292 135.608484,37.7057931 134.554312,37.7057931 Z" id="UNSTOPPABLEDOMAINS" fill="#010617" fill-rule="nonzero"></path>
                        <g id="sign">
                            <polygon id="Rectangle-Copy-3" fill="#2FE9FF" points="46 2.72413793 46 18.6551724 -4.54747351e-13 37.4827586"></polygon>
                            <path d="M37.375,0.443965517 L37.375,29.625 C37.375,37.5640933 30.9390933,44 23,44 C15.0609067,44 8.625,37.5640933 8.625,29.625 L8.625,9.1875 L8.625,17.9310345 L17.25,13.1517241 L17.25,29.5549569 C17.25,32.3336395 19.5025674,34.5862069 22.28125,34.5862069 C25.0599326,34.5862069 27.3125,32.3336395 27.3125,29.5549569 L27.3125,7.57586207 L37.375,2 L37.375,0.443965517 Z" id="Path" fill="#4C47F7"></path>
                        </g>
                    </g>
                </g>
            </g>
        </g>
    </g>
</svg>