<svg xmlns="http://www.w3.org/2000/svg" width="24" height="24" viewBox="0 0 24 24">
    <g fill="none" fill-rule="evenodd">
        <path d="M0 0h24v24H0z"/>
        <path fill="#424B6E" d="M8.295 3l4.597 8.046 3.172-7.402L16.28 3h6.339L21 6.236v10.528L22.618 20h-9.236L15 16.764v-5.559l-3.872 9.035L6 11.266v5.669L8.618 20H1.382L4 16.935v-9.17L1.277 3h7.018zm11.087 2h-1.661L17 7.162v10.074l-.382.764h2.764L19 17.236V5.764L19.382 5zM7.134 5h-2.41l6.148 10.76 1.033-2.41L7.134 5z" opacity=".6"/>
    </g>
</svg>
