<svg xmlns="http://www.w3.org/2000/svg" width="24" height="24" viewBox="0 0 24 24">
    <g fill="none" fill-rule="evenodd">
        <path d="M0 0h24v24H0z"/>
        <path fill="#424B6E" d="M21.905 4.819c.063.2.068.413.014.615L18.006 20.11a1.1 1.1 0 0 1-1.75.575l-4.182-3.345-2.235 2.235a1.1 1.1 0 0 1-1.856-.562l-.868-4.337-5.341-2.671a1.1 1.1 0 0 1 .16-2.033l18.591-5.87a1.1 1.1 0 0 1 1.38.717zm-2.34 1.683L4.656 11.21l3.39 1.694 7.572-3.028-3.365 5.046 4.175 3.34 3.137-11.76zm-9.183 7.622l-1.239.495.265 1.327.698-1.393.062-.108.214-.32z" opacity=".6"/>
    </g>
</svg>
